HIERARCHY
ROOT hip
{
  OFFSET 0 0 0
  CHANNELS 6 Xposition Yposition Zposition Zrotation Yrotation Xrotation
  JOINT abdomen
  {
    OFFSET 0 20.6881 -0.73152
    CHANNELS 3 Zrotation Xrotation Yrotation
    JOINT chest
    {
      OFFSET 0 11.7043 -0.48768
      CHANNELS 3 Zrotation Xrotation Yrotation
      JOINT neck
      {
        OFFSET 0 22.1894 -2.19456
        CHANNELS 3 Zrotation Xrotation Yrotation
        JOINT head
        {
          OFFSET -0.24384 7.07133 1.2192
          CHANNELS 3 Zrotation Xrotation Yrotation
          JOINT leftEye
          {
            OFFSET 4.14528 8.04674 8.04672
            CHANNELS 3 Zrotation Xrotation Yrotation
            End Site
            {
              OFFSET 1 0 0
            }
          }
          JOINT rightEye
          {
            OFFSET -3.6576 8.04674 8.04672
            CHANNELS 3 Zrotation Xrotation Yrotation
            End Site
            {
              OFFSET 1 0 0
            }
          }
        }
      }
      JOINT rCollar
      {
        OFFSET -2.68224 19.2634 -4.8768
        CHANNELS 3 Zrotation Xrotation Yrotation
        JOINT rShldr
        {
          OFFSET -8.77824 -1.95073 1.46304
          CHANNELS 3 Zrotation Xrotation Yrotation
          JOINT rForeArm
          {
            OFFSET -28.1742 -1.7115 0.48768
            CHANNELS 3 Zrotation Xrotation Yrotation
            JOINT rHand
            {
              OFFSET -22.5879 0.773209 7.07136
              CHANNELS 3 Zrotation Xrotation Yrotation
              JOINT rThumb1
              {
                OFFSET -1.2192 -0.487915 3.41376
                CHANNELS 3 Zrotation Xrotation Yrotation
                JOINT rThumb2
                {
                  OFFSET -3.37035 -0.52449 3.41376
                  CHANNELS 3 Zrotation Xrotation Yrotation
                  End Site
                  {
                    OFFSET -1.78271 -1.18214 1.43049
                  }
                }
              }
              JOINT rIndex1
              {
                OFFSET -7.75947 0.938293 5.60832
                CHANNELS 3 Zrotation Xrotation Yrotation
                JOINT rIndex2
                {
                  OFFSET -2.54057 -0.884171 1.56538
                  CHANNELS 3 Zrotation Xrotation Yrotation
                  End Site
                  {
                    OFFSET -1.62519 -0.234802 1.16502
                  }
                }
              }
              JOINT rMid1
              {
                OFFSET -8.24714 1.18213 3.41376
                CHANNELS 3 Zrotation Xrotation Yrotation
                JOINT rMid2
                {
                  OFFSET -3.10165 -0.590103 1.0647
                  CHANNELS 3 Zrotation Xrotation Yrotation
                  End Site
                  {
                    OFFSET -2.48547 -0.328903 0.83742
                  }
                }
              }
              JOINT rRing1
              {
                OFFSET -8.82822 0.546677 1.51678
                CHANNELS 3 Zrotation Xrotation Yrotation
                JOINT rRing2
                {
                  OFFSET -2.60934 -0.819778 -0.0198488
                  CHANNELS 3 Zrotation Xrotation Yrotation
                  End Site
                  {
                    OFFSET -2.33842 -0.294052 0.168128
                  }
                }
              }
              JOINT rPinky1
              {
                OFFSET -8.27202 -0.0477905 -0.4584
                CHANNELS 3 Zrotation Xrotation Yrotation
                JOINT rPinky2
                {
                  OFFSET -1.82734 -0.647385 -0.700984
                  CHANNELS 3 Zrotation Xrotation Yrotation
                  End Site
                  {
                    OFFSET -1.69225 -0.51767 -0.607171
                  }
                }
              }
            }
          }
        }
      }
      JOINT lCollar
      {
        OFFSET 2.68224 19.2634 -4.8768
        CHANNELS 3 Zrotation Xrotation Yrotation
        JOINT lShldr
        {
          OFFSET 8.77824 -1.95073 1.46304
          CHANNELS 3 Zrotation Xrotation Yrotation
          JOINT lForeArm
          {
            OFFSET 28.1742 -1.7115 0.48768
            CHANNELS 3 Zrotation Xrotation Yrotation
            JOINT lHand
            {
              OFFSET 22.5879 0.773209 7.07136
              CHANNELS 3 Zrotation Xrotation Yrotation
              JOINT lThumb1
              {
                OFFSET 1.2192 -0.487915 3.41376
                CHANNELS 3 Zrotation Xrotation Yrotation
                JOINT lThumb2
                {
                  OFFSET 3.37035 -0.52449 3.41376
                  CHANNELS 3 Zrotation Xrotation Yrotation
                  End Site
                  {
                    OFFSET 1.78271 -1.18214 1.43049
                  }
                }
              }
              JOINT lIndex1
              {
                OFFSET 7.75947 0.938293 5.60832
                CHANNELS 3 Zrotation Xrotation Yrotation
                JOINT lIndex2
                {
                  OFFSET 2.54057 -0.884171 1.56538
                  CHANNELS 3 Zrotation Xrotation Yrotation
                  End Site
                  {
                    OFFSET 1.62519 -0.234802 1.16502
                  }
                }
              }
              JOINT lMid1
              {
                OFFSET 8.24714 1.18213 3.41376
                CHANNELS 3 Zrotation Xrotation Yrotation
                JOINT lMid2
                {
                  OFFSET 3.10165 -0.590103 1.0647
                  CHANNELS 3 Zrotation Xrotation Yrotation
                  End Site
                  {
                    OFFSET 2.48547 -0.328903 0.83742
                  }
                }
              }
              JOINT lRing1
              {
                OFFSET 8.82822 0.546677 1.51678
                CHANNELS 3 Zrotation Xrotation Yrotation
                JOINT lRing2
                {
                  OFFSET 2.60934 -0.819778 -0.0198488
                  CHANNELS 3 Zrotation Xrotation Yrotation
                  End Site
                  {
                    OFFSET 2.33842 -0.294052 0.168128
                  }
                }
              }
              JOINT lPinky1
              {
                OFFSET 8.27202 -0.0477905 -0.4584
                CHANNELS 3 Zrotation Xrotation Yrotation
                JOINT lPinky2
                {
                  OFFSET 1.82734 -0.647385 -0.700984
                  CHANNELS 3 Zrotation Xrotation Yrotation
                  End Site
                  {
                    OFFSET 1.69225 -0.51767 -0.607171
                  }
                }
              }
            }
          }
        }
      }
    }
  }
  JOINT rButtock
  {
    OFFSET -8.77824 4.35084 1.2192
    CHANNELS 3 Zrotation Xrotation Yrotation
    JOINT rThigh
    {
      OFFSET 0 -1.70687 -2.19456
      CHANNELS 3 Zrotation Xrotation Yrotation
      JOINT rShin
      {
        OFFSET 0 -36.8199 0.73152
        CHANNELS 3 Zrotation Xrotation Yrotation
        JOINT rFoot
        {
          OFFSET 0.73152 -45.1104 -5.12064
          CHANNELS 3 Zrotation Xrotation Yrotation
          End Site
          {
            OFFSET -1.1221 -3.69964 12.103
          }
        }
      }
    }
  }
  JOINT lButtock
  {
    OFFSET 8.77824 4.35084 1.2192
    CHANNELS 3 Zrotation Xrotation Yrotation
    JOINT lThigh
    {
      OFFSET 0 -1.70687 -2.19456
      CHANNELS 3 Zrotation Xrotation Yrotation
      JOINT lShin
      {
        OFFSET 0 -36.8199 0.73152
        CHANNELS 3 Zrotation Xrotation Yrotation
        JOINT lFoot
        {
          OFFSET -0.73152 -45.1104 -5.12064
          CHANNELS 3 Zrotation Xrotation Yrotation
          End Site
          {
            OFFSET 1.1221 -3.69964 12.103
          }
        }
      }
    }
  }
}
MOTION
Frames:	8
Frame Time:	0.00833333
-8.37381 84.6142 36.8469 -2.98 -4.1817 -0.8625 2.88963 7.38707 -4.25469 -2.28477 -4.42025 -1.40111 -11.1182 7.69047 -7.03368 1.86701 2.15324 -12.1935 -0.0 0.0 0.0 -0.0 0.0 0.0 3.16195e-15 9.89983e-15 3.91435e-14 58.4157 42.2551 22.1709 -26.8617 -44.5037 92.2852 -0.193282 -11.5484 -1.65964 -2.56298e-10 -3.2729e-10 1.09208e-10 -4.44363e-10 -5.71054e-10 1.86782e-10 -2.56295e-10 -3.27287e-10 1.09199e-10 7.73091 5.47488 0.417314 -2.563e-10 -3.27289e-10 1.09206e-10 2.90554 0.965183 0.102902 -2.56287e-10 -3.27288e-10 1.09205e-10 10.2786 0.731801 0.0259123 -2.56299e-10 -3.27288e-10 1.09209e-10 2.22167 -0.733487 -0.20892 3.05026e-15 9.90196e-15 3.89641e-14 -24.261 51.3961 -74.4086 28.3746 -33.4137 -72.5442 1.14817 -28.9518 4.45674 -8.04586e-11 -4.3518e-10 -4.44464e-10 -1.2835e-10 -7.59296e-10 -7.685e-10 -8.04678e-11 -4.35168e-10 -4.4445e-10 -7.73091 5.47488 -0.417314 -8.04575e-11 -4.3518e-10 -4.44462e-10 -2.90554 0.965183 -0.102902 -8.04639e-11 -4.35181e-10 -4.44464e-10 -10.2786 0.731801 -0.0259123 -8.04502e-11 -4.35182e-10 -4.44472e-10 -2.22167 -0.733487 0.20892 -2.03217e-16 0.0 -3.88251e-19 -2.27136 9.78134 -0.853424 0.00305955 -4.77604 -0.0178308 -2.76891 -10.7576 -9.63938 2.03217e-16 0.0 3.88251e-19 6.14935 4.48707 -4.82786 -0.0455266 4.32657 -0.163373 1.89113 -10.6405 20.311
-8.4462 84.6413 36.6952 -2.9569 -5.0736 -0.8616 3.14598 7.77487 -4.54816 -1.92132 -4.55592 -1.45852 -10.7973 7.19254 -6.59855 1.42758 1.14976 -11.2954 -0.0 0.0 0.0 -0.0 0.0 0.0 1.92837e-14 3.97181e-16 -6.26172e-15 56.2749 42.2216 26.4006 -27.244 -43.3257 90.1193 -0.295911 -15.2979 -2.20312 -1.87624e-10 -2.46006e-10 -2.16787e-11 -3.25187e-10 -4.29483e-10 -4.00551e-11 -1.8762e-10 -2.46007e-10 -2.1685e-11 7.73091 5.47488 0.417314 -1.87625e-10 -2.46006e-10 -2.16787e-11 2.90554 0.965183 0.102902 -1.87611e-10 -2.46006e-10 -2.16818e-11 10.2786 0.731801 0.0259123 -1.87624e-10 -2.46006e-10 -2.16787e-11 2.22167 -0.733487 -0.20892 1.91824e-14 3.97569e-16 -6.4605e-15 -25.8678 50.0892 -74.9374 28.2508 -32.4117 -71.1178 0.968759 -26.7815 4.06772 -6.95269e-11 -3.97681e-10 -4.86186e-10 -1.10426e-10 -6.92811e-10 -8.39344e-10 -6.95381e-11 -3.97668e-10 -4.8617e-10 -7.73091 5.47488 -0.417314 -6.95265e-11 -3.97682e-10 -4.86183e-10 -2.90554 0.965183 -0.102902 -6.95317e-11 -3.97683e-10 -4.86186e-10 -10.2786 0.731801 -0.0259123 -6.95178e-11 -3.97684e-10 -4.86195e-10 -2.22167 -0.733487 0.20892 -2.03217e-16 0.0 -3.88251e-19 -2.32195 9.98774 0.0143685 0.0020156 -5.63765 -0.0349663 -2.81209 -10.3945 -10.2166 2.03217e-16 0.0 3.88251e-19 6.19152 4.76147 -4.48995 -0.0437425 3.96863 -0.14867 2.04179 -10.6683 20.6691
-8.52931 84.6755 36.5423 -2.9813 -6.0165 -0.8653 3.5284 8.17121 -4.69338 -1.6723 -4.71499 -1.47364 -10.5124 6.77251 -6.1228 1.11002 -0.0333813 -10.3314 -0.0 0.0 0.0 -0.0 0.0 0.0 3.94581e-14 3.14474e-15 -7.92095e-14 54.8515 41.8334 30.0927 -27.5202 -42.3456 88.3221 -0.473798 -19.8065 -2.89359 -1.40273e-10 -1.59391e-10 -7.58935e-11 -2.4317e-10 -2.80009e-10 -1.32933e-10 -1.40269e-10 -1.59398e-10 -7.58979e-11 7.73091 5.47488 0.417314 -1.40273e-10 -1.59392e-10 -7.58945e-11 2.90554 0.965183 0.102902 -1.40261e-10 -1.5939e-10 -7.5897e-11 10.2786 0.731801 0.0259123 -1.40271e-10 -1.59393e-10 -7.58935e-11 2.22167 -0.733487 -0.20892 3.93451e-14 3.14438e-15 -7.94331e-14 -27.901 49.084 -74.7468 28.156 -31.8348 -70.3526 0.837742 -24.9187 3.74712 -1.9342e-10 -4.89005e-10 -7.63245e-10 -3.20611e-10 -8.55061e-10 -1.31913e-09 -1.93431e-10 -4.88989e-10 -7.63226e-10 -7.73091 5.47488 -0.417314 -1.9342e-10 -4.89006e-10 -7.63242e-10 -2.90554 0.965183 -0.102902 -1.93425e-10 -4.89008e-10 -7.63245e-10 -10.2786 0.731801 -0.0259123 -1.93412e-10 -4.89009e-10 -7.63256e-10 -2.22167 -0.733487 0.20892 -2.03217e-16 0.0 -3.88251e-19 -2.28043 10.0211 0.987015 0.00123284 -6.28947 -0.0460669 -2.8555 -10.0655 -10.7603 2.03217e-16 0.0 3.88251e-19 6.28909 5.023 -4.10642 -0.0418751 3.61246 -0.133378 2.22971 -10.7492 21.0775
-8.63076 84.7215 36.3616 -3.0925 -7.0185 -0.7737 3.99448 8.59154 -4.69463 -1.47176 -4.89308 -1.44623 -10.266 6.39852 -5.61425 0.889287 -1.37706 -9.31255 -0.0 0.0 0.0 -0.0 0.0 0.0 6.42739e-14 1.25357e-14 -1.76515e-13 54.0471 41.1627 33.3177 -27.7479 -41.5167 86.7308 -0.812962 -25.0768 -3.77645 -9.1403e-11 -3.71302e-11 -9.09434e-11 -1.58676e-10 -6.95623e-11 -1.57157e-10 -9.14009e-11 -3.71436e-11 -9.09454e-11 7.73091 5.47488 0.417314 -9.1403e-11 -3.71308e-11 -9.09466e-11 2.90554 0.965183 0.102902 -9.13931e-11 -3.71269e-11 -9.09468e-11 10.2786 0.731801 0.0259123 -9.13996e-11 -3.71319e-11 -9.09422e-11 2.22167 -0.733487 -0.20892 6.41359e-14 1.2535e-14 -1.76769e-13 -30.3165 48.3963 -73.9554 28.1293 -31.6167 -69.989 0.733516 -23.2185 3.46276 -4.0356e-10 -6.43004e-10 -1.18611e-09 -6.77046e-10 -1.12942e-09 -2.05227e-09 -4.0357e-10 -6.42984e-10 -1.18608e-09 -7.73091 5.47488 -0.417314 -4.03559e-10 -6.43005e-10 -1.1861e-09 -2.90554 0.965183 -0.102902 -4.03564e-10 -6.43007e-10 -1.18611e-09 -10.2786 0.731801 -0.0259123 -4.03553e-10 -6.43009e-10 -1.18612e-09 -2.22167 -0.733487 0.20892 -2.03217e-16 0.0 -3.88251e-19 -2.17634 9.9599 2.07944 0.00068681 -6.84878 -0.0540404 -2.89801 -9.74184 -11.3054 2.03217e-16 0.0 3.88251e-19 6.42299 5.30236 -3.67864 -0.0397806 3.24074 -0.116957 2.45465 -10.8726 21.5511
-8.73487 84.7656 36.1959 -3.2108 -8.0908 -0.5935 4.4272 8.97587 -4.58769 -1.32546 -5.04964 -1.39085 -10.0226 6.07675 -5.12549 0.716904 -2.72341 -8.34788 -0.0 0.0 0.0 -0.0 0.0 0.0 8.58467e-14 2.35108e-14 -2.74146e-13 53.6592 40.3378 36.1497 -27.9279 -40.794 85.3405 -1.32634 -30.8105 -4.82629 -7.19286e-11 6.60093e-12 -8.2667e-11 -1.24713e-10 5.67291e-12 -1.42366e-10 -7.19279e-11 6.58044e-12 -8.26672e-11 7.73091 5.47488 0.417314 -7.19284e-11 6.60098e-12 -8.26723e-11 2.90554 0.965183 0.102902 -7.19213e-11 6.60509e-12 -8.26702e-11 10.2786 0.731801 0.0259123 -7.19236e-11 6.59934e-12 -8.26644e-11 2.22167 -0.733487 -0.20892 8.56888e-14 2.35098e-14 -2.74428e-13 -32.7169 47.8402 -72.9479 28.1387 -31.5774 -69.8293 0.611656 -21.2761 3.14237 -5.88338e-10 -8.78674e-10 -1.62486e-09 -9.90054e-10 -1.54473e-09 -2.81269e-09 -5.88346e-10 -8.78651e-10 -1.62484e-09 -7.73091 5.47488 -0.417314 -5.88336e-10 -8.78674e-10 -1.62486e-09 -2.90554 0.965183 -0.102902 -5.88342e-10 -8.78676e-10 -1.62486e-09 -10.2786 0.731801 -0.0259123 -5.88332e-10 -8.78679e-10 -1.62488e-09 -2.22167 -0.733487 0.20892 -2.03217e-16 0.0 -3.88251e-19 -2.11174 9.84112 3.15224 0.000334376 -7.29692 -0.0603355 -2.92205 -9.44496 -11.7777 2.03217e-16 0.0 3.88251e-19 6.49716 5.59259 -3.2444 -0.0375594 2.86569 -0.100606 2.6944 -10.9973 22.0326
-8.794 84.7997 36.1111 -3.1081 -9.2113 -0.4419 4.71113 9.26401 -4.40838 -1.23947 -5.14407 -1.32206 -9.74775 5.81365 -4.70897 0.523867 -3.91161 -7.54473 -0.0 0.0 0.0 -0.0 0.0 0.0 9.62921e-14 3.10104e-14 -3.48072e-13 53.4534 39.4672 38.6817 -28.0517 -40.1329 84.16 -1.99759 -36.7114 -6.0156 -1.12763e-10 -1.42374e-10 -6.6903e-11 -1.94287e-10 -2.50488e-10 -1.18198e-10 -1.12763e-10 -1.42401e-10 -6.6903e-11 7.73091 5.47488 0.417314 -1.12763e-10 -1.42374e-10 -6.69093e-11 2.90554 0.965183 0.102902 -1.12758e-10 -1.42374e-10 -6.69061e-11 10.2786 0.731801 0.0259123 -1.12758e-10 -1.42376e-10 -6.68998e-11 2.22167 -0.733487 -0.20892 9.61378e-14 3.1009e-14 -3.4837e-13 -34.7181 47.2468 -72.0989 28.1403 -31.5269 -69.6926 0.4483 -18.6856 2.72435 -6.36146e-10 -1.21501e-09 -1.9496e-09 -1.06996e-09 -2.12984e-09 -3.37435e-09 -6.36152e-10 -1.21499e-09 -1.94958e-09 -7.73091 5.47488 -0.417314 -6.36144e-10 -1.21501e-09 -1.94961e-09 -2.90554 0.965183 -0.102902 -6.3615e-10 -1.21501e-09 -1.94961e-09 -10.2786 0.731801 -0.0259123 -6.36141e-10 -1.21502e-09 -1.94962e-09 -2.22167 -0.733487 0.20892 -2.03217e-16 0.0 -3.88251e-19 -2.19235 9.7036 4.06666 7.16533e-05 -7.61522 -0.066406 -2.91214 -9.19626 -12.1033 2.03217e-16 0.0 3.88251e-19 6.41653 5.8868 -2.84155 -0.0353569 2.49948 -0.0855201 2.92486 -11.0831 22.4639
-8.75488 84.8172 36.1076 -2.5843 -10.1951 -0.4698 4.72688 9.42562 -4.12153 -1.21181 -5.14673 -1.23246 -9.39912 5.63978 -4.36589 0.223418 -4.9407 -6.92142 -0.0 0.0 0.0 -0.0 0.0 0.0 8.94271e-14 3.29523e-14 -3.98129e-13 53.5967 38.5181 40.8621 -28.1376 -39.542 83.1469 -2.95521 -43.4875 -7.56762 -2.6654e-10 -6.5486e-10 -3.67216e-11 -4.57665e-10 -1.13199e-09 -7.58351e-11 -2.66537e-10 -6.54892e-10 -3.67239e-11 7.73091 5.47488 0.417314 -2.66539e-10 -6.5486e-10 -3.67271e-11 2.90554 0.965183 0.102902 -2.66535e-10 -6.54873e-10 -3.67249e-11 10.2786 0.731801 0.0259123 -2.66535e-10 -6.54862e-10 -3.6719e-11 2.22167 -0.733487 -0.20892 8.93161e-14 3.29501e-14 -3.98429e-13 -36.2073 46.6227 -71.4481 28.1289 -31.4506 -69.5758 0.239303 -14.8894 2.13375 -4.61221e-10 -1.79982e-09 -2.16129e-09 -7.70329e-10 -3.13813e-09 -3.7377e-09 -4.61225e-10 -1.79981e-09 -2.16127e-09 -7.73091 5.47488 -0.417314 -4.6122e-10 -1.79982e-09 -2.16129e-09 -2.90554 0.965183 -0.102902 -4.61226e-10 -1.79983e-09 -2.16129e-09 -10.2786 0.731801 -0.0259123 -4.61216e-10 -1.79983e-09 -2.16131e-09 -2.22167 -0.733487 0.20892 -2.03217e-16 0.0 -3.88251e-19 -2.53974 9.54555 4.79182 3.22048e-05 -7.75419 -0.0733361 -2.85284 -9.01304 -12.2363 2.03217e-16 0.0 3.88251e-19 6.05688 6.23726 -2.46924 -0.0330136 2.09211 -0.0703068 3.16299 -11.1057 22.8426
-8.65385 84.8296 36.1593 -1.8373 -11.0031 -0.6796 4.56519 9.49724 -3.72272 -1.24077 -5.08551 -1.11805 -9.0097 5.54265 -4.07198 -0.143986 -5.87927 -6.42242 -0.0 0.0 0.0 -0.0 0.0 0.0 7.08168e-14 3.22791e-14 -4.35053e-13 54.1315 37.5029 42.688 -28.2105 -39.0561 82.2709 -4.56265 -51.0009 -9.81065 -5.01974e-10 -1.42318e-09 1.26065e-11 -8.61201e-10 -2.45366e-09 -5.04351e-12 -5.01968e-10 -1.42321e-09 1.26002e-11 7.73091 5.47488 0.417314 -5.01974e-10 -1.42318e-09 1.26031e-11 2.90554 0.965183 0.102902 -5.0197e-10 -1.42321e-09 1.26031e-11 10.2786 0.731801 0.0259123 -5.01972e-10 -1.42318e-09 1.26079e-11 2.22167 -0.733487 -0.20892 7.07754e-14 3.22759e-14 -4.35345e-13 -37.3988 46.0404 -70.8073 28.1275 -31.4399 -69.5581 0.0686829 -10.2507 1.44584 -1.41754e-10 -2.5754e-09 -2.31734e-09 -2.24277e-10 -4.47232e-09 -4.00306e-09 -1.41756e-10 -2.57539e-09 -2.31732e-09 -7.73091 5.47488 -0.417314 -1.41754e-10 -2.5754e-09 -2.31734e-09 -2.90554 0.965183 -0.102902 -1.41759e-10 -2.5754e-09 -2.31734e-09 -10.2786 0.731801 -0.0259123 -1.41748e-10 -2.5754e-09 -2.31735e-09 -2.22167 -0.733487 0.20892 -2.03217e-16 0.0 -3.88251e-19 -3.06519 9.35202 5.39955 0.000322676 -7.73863 -0.080102 -2.75994 -8.87979 -12.2252 2.03217e-16 0.0 3.88251e-19 5.50116 6.62961 -2.11086 -0.0304902 1.65483 -0.0548974 3.41241 -11.0917 23.195
